<?xml version="1.0" encoding="utf-8" standalone="yes"?>
<!DOCTYPE svg PUBLIC "-//W3C//DTD SVG 1.1//EN" "http://www.w3.org/Graphics/SVG/1.1/DTD/svg11.dtd">
<svg xmlns="http://www.w3.org/2000/svg" xmlns:xlink="http://www.w3.org/1999/xlink" xmlns:dc="http://purl.org/dc/elements/1.1/" xmlns:cc="http://web.resource.org/cc/" xmlns:rdf="http://www.w3.org/1999/02/22-rdf-syntax-ns#" xmlns:sodipodi="http://sodipodi.sourceforge.net/DTD/sodipodi-0.dtd" xmlns:inkscape="http://www.inkscape.org/namespaces/inkscape" version="1.1" baseProfile="full" width="256px" height="128px" viewBox="0 0 256 128" preserveAspectRatio="xMidYMid meet" id="svg_document" style="zoom: 2;"><!-- Created with macSVG - https://macsvg.org/ - https://github.com/dsward2/macsvg/ --><title id="svg_document_title">Untitled.svg</title><defs id="svg_document_defs"><style id="Aldrich_Google_Webfont_import">@import url(https://fonts.googleapis.com/css?family=Aldrich);</style></defs><g id="main_group"><g id="textToPathGroup"><path stroke="none" stroke-width="1" id="textToPath-0" d="M28.699997,77.699997 L28.699997,46 L33.599998,46 L33.599998,77.699997 C33.599998,78.399994 33.400002,79 33.199997,79.600006 C32.900002,80.199997 32.599998,80.699997 32.199997,81.100006 C31.699997,81.5 31.199997,81.899994 30.599998,82.100006 C30,82.399994 29.400002,82.5 28.699997,82.5 L25,82.5 L25,77.699997 M28.5,36 L33.800003,36 L33.800003,41 L28.5,41 M57.5,67.199997 L57.5,61.199997 L46.099998,61.199997 C45.400002,61.199997 44.800003,61 44.199997,60.800003 C43.599998,60.5 43.099998,60.199997 42.699997,59.800003 C42.300003,59.300003 41.900002,58.800003 41.699997,58.199997 C41.400002,57.600006 41.300003,57 41.300003,56.399994 L41.300003,50.800003 C41.300003,50.100006 41.400002,49.5 41.699997,48.899994 C41.900002,48.300003 42.300003,47.800003 42.699997,47.399994 C43.099998,47 43.599998,46.600006 44.199997,46.399994 C44.800003,46.100006 45.400002,46 46.099998,46 L61.300003,46 L61.300003,50.800003 L46.099998,50.800003 L46.099998,56.399994 L57.5,56.399994 C58.199997,56.399994 58.800003,56.5 59.399994,56.699997 C60,57 60.5,57.300003 60.899994,57.800003 C61.300003,58.199997 61.699997,58.699997 61.899994,59.300003 C62.199997,59.899994 62.300003,60.5 62.300003,61.199997 L62.300003,67.199997 C62.300003,67.899994 62.199997,68.5 61.899994,69.100006 C61.699997,69.699997 61.300003,70.199997 60.899994,70.600006 C60.5,71 60,71.399994 59.399994,71.600006 C58.800003,71.899994 58.199997,72 57.5,72 L41.300003,72 L41.300003,67.199997 M68.300003,46 L74.600006,46 L74.600006,38 L79.5,38 L79.5,46 L88,46 L88,50.800003 L79.5,50.800003 L79.5,67.199997 L88,67.199997 L88,72 L79.5,72 C78.800003,72 78.199997,71.899994 77.600006,71.600006 C77,71.399994 76.5,71 76.100006,70.600006 C75.600006,70.199997 75.300003,69.699997 75,69.100006 C74.800003,68.5 74.600006,67.899994 74.600006,67.199997 L74.600006,50.800003 L68.300003,50.800003 M96,60.600006 C96,60 96.100006,59.399994 96.399994,58.800003 C96.600006,58.199997 97,57.699997 97.399994,57.300003 C97.800003,56.800003 98.399994,56.5 98.899994,56.199997 C99.5,56 100.100006,55.800003 100.800003,55.800003 L113.199997,55.800003 L113.199997,50.800003 L97.5,50.800003 L97.5,46 L113.199997,46 C113.899994,46 114.5,46.100006 115.100006,46.399994 C115.699997,46.600006 116.199997,47 116.600006,47.399994 C117,47.800003 117.399994,48.300003 117.600006,48.899994 C117.899994,49.5 118,50.100006 118,50.800003 L118,72 L113.199997,72 L113.199997,67.600006 C113.100006,68.199997 113,68.800003 112.699997,69.300003 C112.399994,69.899994 112.100006,70.300003 111.600006,70.699997 C111.199997,71.100006 110.699997,71.399994 110.199997,71.699997 C109.600006,71.899994 109,72 108.399994,72 L100.800003,72 C100.100006,72 99.5,71.899994 98.899994,71.600006 C98.399994,71.399994 97.800003,71 97.399994,70.600006 C97,70.199997 96.600006,69.699997 96.399994,69.100006 C96.100006,68.5 96,67.899994 96,67.199997 M100.800003,67.199997 L113.199997,67.199997 L113.199997,60.600006 L100.800003,60.600006 M130.800003,50.800003 L130.800003,67.199997 L143.199997,67.199997 L143.199997,62.800003 L148,62.800003 L148,67.199997 C148,67.899994 147.899994,68.5 147.600006,69.100006 C147.399994,69.699997 147,70.199997 146.600006,70.600006 C146.199997,71 145.699997,71.399994 145.100006,71.600006 C144.5,71.899994 143.899994,72 143.199997,72 L130.800003,72 C130.100006,72 129.5,71.899994 128.899994,71.600006 C128.399994,71.399994 127.800003,71 127.399994,70.600006 C127,70.199997 126.600006,69.699997 126.399994,69.100006 C126.100006,68.5 126,67.899994 126,67.199997 L126,50.800003 C126,50.100006 126.100006,49.5 126.399994,48.899994 C126.600006,48.300003 127,47.800003 127.399994,47.399994 C127.800003,47 128.399994,46.600006 128.899994,46.399994 C129.5,46.100006 130.100006,46 130.800003,46 L143.199997,46 C143.899994,46 144.5,46.100006 145.100006,46.399994 C145.699997,46.600006 146.199997,47 146.600006,47.399994 C147,47.800003 147.399994,48.300003 147.600006,48.899994 C147.899994,49.5 148,50.100006 148,50.800003 L148,55.199997 L143.199997,55.199997 L143.199997,50.800003 M179,72 L174.199997,72 L174.199997,50.800003 L160.800003,50.800003 L160.800003,72 L156,72 L156,36 L160.800003,36 L160.800003,50.600006 C160.800003,50 161,49.399994 161.199997,48.800003 C161.5,48.199997 161.800003,47.699997 162.300003,47.300003 C162.699997,46.899994 163.199997,46.600006 163.800003,46.399994 C164.399994,46.100006 165,46 165.600006,46 L174.199997,46 C174.899994,46 175.5,46.100006 176.100006,46.399994 C176.699997,46.600006 177.199997,47 177.600006,47.399994 C178,47.800003 178.399994,48.300003 178.600006,48.899994 C178.899994,49.5 179,50.100006 179,50.800003 M192.100006,46 L192.100006,72 L187.299988,72 L187.299988,46 M187,36 L192.299988,36 L192.299988,41 L187,41 M222.799988,67.199997 C222.799988,67.899994 222.700012,68.5 222.399994,69.100006 C222.200012,69.699997 221.799988,70.199997 221.399994,70.600006 C221,71 220.5,71.399994 219.899994,71.600006 C219.299988,71.899994 218.700012,72 218,72 L205.100006,72 C204.5,72 203.799988,71.899994 203.299988,71.600006 C202.700012,71.399994 202.200012,71 201.700012,70.600006 C201.299988,70.199997 201,69.699997 200.700012,69.100006 C200.5,68.5 200.299988,67.899994 200.299988,67.199997 L200.299988,50.800003 C200.299988,50.100006 200.5,49.5 200.700012,48.899994 C201,48.300003 201.299988,47.800003 201.700012,47.399994 C202.200012,47 202.700012,46.600006 203.299988,46.399994 C203.799988,46.100006 204.5,46 205.100006,46 L218,46 C218.700012,46 219.299988,46.100006 219.899994,46.399994 C220.5,46.600006 221,47 221.399994,47.399994 C221.799988,47.800003 222.200012,48.300003 222.399994,48.899994 C222.700012,49.5 222.799988,50.100006 222.799988,50.800003 M205.100006,50.800003 L205.100006,67.199997 L218,67.199997 L218,50.800003 " fill="limegreen" transform=""></path></g></g></svg>