<?xml version="1.0" encoding="utf-8" standalone="yes"?>
<!DOCTYPE svg PUBLIC "-//W3C//DTD SVG 1.1//EN" "http://www.w3.org/Graphics/SVG/1.1/DTD/svg11.dtd">
<svg xmlns="http://www.w3.org/2000/svg" xmlns:xlink="http://www.w3.org/1999/xlink" xmlns:dc="http://purl.org/dc/elements/1.1/" xmlns:cc="http://web.resource.org/cc/" xmlns:rdf="http://www.w3.org/1999/02/22-rdf-syntax-ns#" xmlns:sodipodi="http://sodipodi.sourceforge.net/DTD/sodipodi-0.dtd" xmlns:inkscape="http://www.inkscape.org/namespaces/inkscape" version="1.1" baseProfile="full" width="512px" height="512px" viewBox="0 0 512 512" preserveAspectRatio="xMidYMid meet" id="svg_document" style="zoom: 1;"><!-- Created with macSVG - https://macsvg.org/ - https://github.com/dsward2/macsvg/ --><title id="svg_document_title">Untitled.svg</title><defs id="svg_document_defs"></defs><g id="main_group"></g><ellipse stroke="#000000" cx="266px" transform="" id="ellipse1" stroke-width="3px" cy="227px" fill="burlywood" rx="156px" ry="216px"></ellipse><path stroke="#000000" id="path1" stroke-width="3px" d="M267,12 C214,11 198,33 198,33 C198,33 264,176 264,176 C264,176 322,28 322,28 C322,28 320,13 267,12 " fill="limegreen" transform=""></path><g id="textToPathGroup"><path stroke="none" id="textToPath-0" stroke-width="1" d="M299,288.5 L299,312.799988 L295.399994,312.799988 C287.5,312.799988 280.299988,311.600006 273.799988,309.399994 C267.200012,307.100006 261.700012,303.899994 257.100006,299.600006 C252.399994,295.399994 248.899994,290.200012 246.399994,284.100006 C243.899994,277.899994 242.600006,271 242.600006,263.100006 C242.600006,260.200012 242.800003,257 243.100006,253.600006 C243.399994,250.200012 243.600006,246.799988 243.899994,243.399994 C244.200012,240.100006 244.5,236.899994 244.799988,233.799988 C245.100006,230.799988 245.200012,228.200012 245.200012,226 C245.200012,221.200012 244.799988,217.299988 243.899994,214.200012 C243,211.200012 241.5,208.700012 239.600006,206.899994 C237.699997,205.100006 235.199997,203.899994 232.100006,203.200012 C229,202.5 225.399994,202.100006 221.100006,202.100006 L220.100006,202.100006 L220.100006,177.600006 L221.100006,177.600006 C225.399994,177.600006 229,177.299988 232.100006,176.600006 C235.199997,175.899994 237.699997,174.600006 239.600006,172.799988 C241.5,171 243,168.600006 243.899994,165.5 C244.799988,162.399994 245.200012,158.5 245.200012,153.799988 C245.200012,151.600006 245.100006,149 244.799988,146 C244.5,143 244.200012,139.799988 243.899994,136.399994 C243.600006,133.100006 243.399994,129.700012 243.100006,126.200012 C242.800003,122.799988 242.600006,119.600006 242.600006,116.600006 C242.600006,108.800003 243.899994,101.800003 246.399994,95.699997 C248.899994,89.600006 252.399994,84.399994 257.100006,80.100006 C261.700012,75.899994 267.200012,72.600006 273.799988,70.399994 C280.299988,68.100006 287.5,67 295.399994,67 L299,67 L299,91.399994 L295.399994,91.399994 C286.600006,91.399994 279.899994,93.5 275.200012,97.800003 C270.600006,102.100006 268.200012,108.5 268.200012,117.100006 C268.200012,119.699997 268.399994,122.5 268.600006,125.5 C268.899994,128.5 269.200012,131.600006 269.5,134.700012 C269.799988,137.799988 270.100006,140.899994 270.399994,144 C270.600006,147.100006 270.799988,150 270.799988,152.799988 C270.799988,161.600006 269.399994,169.100006 266.799988,175.299988 C264.100006,181.5 259.700012,186.399994 253.600006,189.899994 C259.700012,193.5 264.100006,198.399994 266.799988,204.600006 C269.399994,210.799988 270.799988,218.200012 270.799988,227 C270.799988,229.799988 270.600006,232.700012 270.399994,235.799988 C270.100006,238.799988 269.799988,241.899994 269.5,245.100006 C269.200012,248.200012 268.899994,251.200012 268.600006,254.200012 C268.399994,257.299988 268.200012,260 268.200012,262.600006 C268.200012,271.200012 270.600006,277.700012 275.200012,282 C279.899994,286.299988 286.600006,288.5 295.399994,288.5 " fill="limegreen" transform="translate(3 24) rotate(90 259.549988 189.899994)"></path></g></svg>