<?xml version="1.0" encoding="utf-8" standalone="yes"?>
<!DOCTYPE svg PUBLIC "-//W3C//DTD SVG 1.1//EN" "http://www.w3.org/Graphics/SVG/1.1/DTD/svg11.dtd">
<svg xmlns="http://www.w3.org/2000/svg" xmlns:xlink="http://www.w3.org/1999/xlink" xmlns:dc="http://purl.org/dc/elements/1.1/" xmlns:cc="http://web.resource.org/cc/" xmlns:rdf="http://www.w3.org/1999/02/22-rdf-syntax-ns#" xmlns:sodipodi="http://sodipodi.sourceforge.net/DTD/sodipodi-0.dtd" xmlns:inkscape="http://www.inkscape.org/namespaces/inkscape" version="1.1" baseProfile="full" width="1280px" height="640px" viewBox="0 0 1280 640" preserveAspectRatio="xMidYMid meet" id="svg_document" style="zoom: 1;"><!-- Created with macSVG - https://macsvg.org/ - https://github.com/dsward2/macsvg/ --><title id="svg_document_title">Untitled.svg</title><defs id="svg_document_defs"></defs><g id="main_group"><ellipse stroke="#000000" cx="999px" transform="" id="ellipse1" stroke-width="3px" cy="252px" fill="burlywood" rx="156px" ry="216px"></ellipse><path stroke="#000000" id="path1" stroke-width="3px" d="M1000,37 C947,36 931,58 931,58 C931,58 997,201 997,201 C997,201 1055,53 1055,53 C1055,53 1053,38 1000,37 " fill="limegreen" transform=""></path><path stroke="none" stroke-width="1" id="path2" d="M1033,338.5 L1033,362.799988 L1029.400024,362.799988 C1021.5,362.799988 1014.300049,361.599976 1007.800049,359.400024 C1001.199951,357.099976 995.699951,353.900024 991.099976,349.599976 C986.400024,345.400024 982.900024,340.200012 980.400024,334.099976 C977.900024,327.900024 976.599976,321 976.599976,313.099976 C976.599976,310.200012 976.800049,307 977.099976,303.599976 C977.400024,300.200012 977.599976,296.799988 977.900024,293.400024 C978.199951,290.099976 978.5,286.900024 978.800049,283.799988 C979.099976,280.799988 979.199951,278.200012 979.199951,276 C979.199951,271.200012 978.800049,267.299988 977.900024,264.200012 C977,261.200012 975.5,258.700012 973.599976,256.900024 C971.699951,255.099976 969.199951,253.900024 966.099976,253.200012 C963,252.5 959.400024,252.099976 955.099976,252.099976 L954.099976,252.099976 L954.099976,227.600006 L955.099976,227.600006 C959.400024,227.600006 963,227.299988 966.099976,226.600006 C969.199951,225.899994 971.699951,224.600006 973.599976,222.799988 C975.5,221 977,218.600006 977.900024,215.5 C978.800049,212.399994 979.199951,208.5 979.199951,203.799988 C979.199951,201.600006 979.099976,199 978.800049,196 C978.5,193 978.199951,189.799988 977.900024,186.399994 C977.599976,183.100006 977.400024,179.700012 977.099976,176.200012 C976.800049,172.799988 976.599976,169.600006 976.599976,166.600006 C976.599976,158.799988 977.900024,151.799988 980.400024,145.700012 C982.900024,139.600006 986.400024,134.399994 991.099976,130.100006 C995.699951,125.899994 1001.199951,122.600006 1007.800049,120.399994 C1014.300049,118.100006 1021.5,117 1029.400024,117 L1033,117 L1033,141.399994 L1029.400024,141.399994 C1020.599976,141.399994 1013.900024,143.5 1009.199951,147.799988 C1004.599976,152.100006 1002.199951,158.5 1002.199951,167.100006 C1002.199951,169.700012 1002.400024,172.5 1002.599976,175.5 C1002.900024,178.5 1003.199951,181.600006 1003.5,184.700012 C1003.800049,187.799988 1004.099976,190.899994 1004.400024,194 C1004.599976,197.100006 1004.800049,200 1004.800049,202.799988 C1004.800049,211.600006 1003.400024,219.100006 1000.800049,225.299988 C998.099976,231.5 993.699951,236.399994 987.599976,239.899994 C993.699951,243.5 998.099976,248.400024 1000.800049,254.599976 C1003.400024,260.799988 1004.800049,268.200012 1004.800049,277 C1004.800049,279.799988 1004.599976,282.700012 1004.400024,285.799988 C1004.099976,288.799988 1003.800049,291.900024 1003.5,295.099976 C1003.199951,298.200012 1002.900024,301.200012 1002.599976,304.200012 C1002.400024,307.299988 1002.199951,310 1002.199951,312.599976 C1002.199951,321.200012 1004.599976,327.700012 1009.199951,332 C1013.900024,336.299988 1020.599976,338.5 1029.400024,338.5 " fill="limegreen" transform="rotate(90 996.5499877929688 239.899994)"></path></g><g id="textToPathGroup"></g><g id="textToPathGroup"><path stroke="none" stroke-width="1" id="textToPath-0" d="M72.099998,324.600006 L72.099998,204.199997 L90.399994,204.199997 L90.399994,324.600006 C90.399994,327.200012 89.899994,329.5 89,331.799988 C88,334 86.699997,335.899994 85.100006,337.600006 C83.400002,339.200012 81.5,340.5 79.300003,341.5 C77.099998,342.399994 74.699997,342.899994 72.099998,342.899994 L57.900002,342.899994 L57.900002,324.600006 M71.199997,166.199997 L91.300003,166.199997 L91.300003,185.199997 L71.199997,185.199997 M181.399994,284.700012 L181.399994,261.799988 L138.100006,261.799988 C135.600006,261.799988 133.199997,261.299988 131,260.399994 C128.699997,259.399994 126.800003,258.100006 125.199997,256.5 C123.5,254.799988 122.199997,252.899994 121.300003,250.700012 C120.300003,248.399994 119.800003,246.100006 119.800003,243.5 L119.800003,222.5 C119.800003,219.899994 120.300003,217.600006 121.300003,215.299988 C122.199997,213.100006 123.5,211.200012 125.199997,209.5 C126.800003,207.899994 128.699997,206.600006 131,205.600006 C133.199997,204.699997 135.600006,204.199997 138.100006,204.199997 L195.899994,204.199997 L195.899994,222.5 L138.100006,222.5 L138.100006,243.5 L181.399994,243.5 C184,243.5 186.300003,244 188.5,245 C190.699997,245.899994 192.699997,247.200012 194.300003,248.899994 C196,250.5 197.300003,252.399994 198.300003,254.700012 C199.199997,256.899994 199.699997,259.299988 199.699997,261.799988 L199.699997,284.700012 C199.699997,287.299988 199.199997,289.600006 198.300003,291.899994 C197.300003,294.100006 196,296 194.300003,297.700012 C192.699997,299.299988 190.699997,300.600006 188.5,301.600006 C186.300003,302.5 184,303 181.399994,303 L119.800003,303 L119.800003,284.700012 M222.399994,204.199997 L246.600006,204.199997 L246.600006,173.800003 L264.799988,173.800003 L264.799988,204.199997 L297.299988,204.199997 L297.299988,222.5 L264.799988,222.5 L264.799988,284.700012 L297.299988,284.700012 L297.299988,303 L264.799988,303 C262.399994,303 260,302.5 257.799988,301.600006 C255.600006,300.600006 253.600006,299.299988 251.899994,297.700012 C250.299988,296 249,294.100006 248,291.899994 C247,289.600006 246.600006,287.299988 246.600006,284.700012 L246.600006,222.5 L222.399994,222.5 M327.700012,259.899994 C327.700012,257.299988 328.200012,255 329.200012,252.799988 C330.100006,250.600006 331.399994,248.600006 333.100006,247 C334.700012,245.299988 336.600006,244 338.899994,243 C341.100006,242.100006 343.399994,241.600006 345.899994,241.600006 L393,241.600006 L393,222.5 L333.399994,222.5 L333.399994,204.199997 L393,204.199997 C395.600006,204.199997 398,204.699997 400.200012,205.600006 C402.399994,206.600006 404.299988,207.899994 406,209.5 C407.600006,211.200012 408.899994,213.100006 409.899994,215.299988 C410.799988,217.600006 411.299988,219.899994 411.299988,222.5 L411.299988,303 L393,303 L393,286.299988 C392.899994,288.600006 392.200012,290.799988 391.200012,292.799988 C390.100006,294.799988 388.799988,296.600006 387.200012,298.100006 C385.5,299.600006 383.600006,300.799988 381.5,301.700012 C379.399994,302.600006 377.200012,303 374.899994,303 L345.899994,303 C343.399994,303 341.100006,302.5 338.899994,301.600006 C336.600006,300.600006 334.700012,299.299988 333.100006,297.700012 C331.399994,296 330.100006,294.100006 329.200012,291.899994 C328.200012,289.600006 327.700012,287.299988 327.700012,284.700012 M345.899994,284.700012 L393,284.700012 L393,259.899994 L345.899994,259.899994 M459.899994,222.5 L459.899994,284.700012 L507.099976,284.700012 L507.099976,268 L525.299988,268 L525.299988,284.700012 C525.299988,287.299988 524.900024,289.600006 523.900024,291.899994 C522.900024,294.100006 521.599976,296 520,297.700012 C518.400024,299.299988 516.400024,300.600006 514.200012,301.600006 C512,302.5 509.599976,303 507.099976,303 L459.899994,303 C457.5,303 455.100006,302.5 452.899994,301.600006 C450.700012,300.600006 448.700012,299.299988 447.100006,297.700012 C445.399994,296 444.100006,294.100006 443.200012,291.899994 C442.200012,289.600006 441.799988,287.299988 441.799988,284.700012 L441.799988,222.5 C441.799988,219.899994 442.200012,217.600006 443.200012,215.299988 C444.100006,213.100006 445.399994,211.200012 447.100006,209.5 C448.700012,207.899994 450.700012,206.600006 452.899994,205.600006 C455.100006,204.699997 457.5,204.199997 459.899994,204.199997 L507.099976,204.199997 C509.599976,204.199997 512,204.699997 514.200012,205.600006 C516.400024,206.600006 518.400024,207.899994 520,209.5 C521.599976,211.200012 522.900024,213.100006 523.900024,215.299988 C524.900024,217.600006 525.299988,219.899994 525.299988,222.5 L525.299988,239.200012 L507.099976,239.200012 L507.099976,222.5 M643.200012,303 L624.900024,303 L624.900024,222.5 L574,222.5 L574,303 L555.799988,303 L555.799988,166.199997 L574,166.199997 L574,221.600006 C574.099976,219.200012 574.599976,217 575.599976,214.799988 C576.599976,212.700012 577.900024,210.799988 579.599976,209.299988 C581.200012,207.699997 583.099976,206.399994 585.299988,205.5 C587.400024,204.600006 589.799988,204.199997 592.200012,204.199997 L624.900024,204.199997 C627.400024,204.199997 629.799988,204.699997 632,205.600006 C634.299988,206.600006 636.200012,207.899994 637.799988,209.5 C639.5,211.200012 640.799988,213.100006 641.700012,215.299988 C642.700012,217.600006 643.200012,219.899994 643.200012,222.5 M692.799988,204.199997 L692.799988,303 L674.5,303 L674.5,204.199997 M673.599976,166.199997 L693.700012,166.199997 L693.700012,185.199997 L673.599976,185.199997 M809.599976,284.700012 C809.599976,287.299988 809.099976,289.600006 808.200012,291.899994 C807.200012,294.100006 805.900024,296 804.299988,297.700012 C802.599976,299.299988 800.700012,300.600006 798.5,301.600006 C796.299988,302.5 794,303 791.400024,303 L742.299988,303 C739.900024,303 737.5,302.5 735.299988,301.600006 C733.099976,300.600006 731.099976,299.299988 729.5,297.700012 C727.799988,296 726.599976,294.100006 725.599976,291.899994 C724.599976,289.600006 724.200012,287.299988 724.200012,284.700012 L724.200012,222.5 C724.200012,219.899994 724.599976,217.600006 725.599976,215.299988 C726.599976,213.100006 727.799988,211.200012 729.5,209.5 C731.099976,207.899994 733.099976,206.600006 735.299988,205.600006 C737.5,204.699997 739.900024,204.199997 742.299988,204.199997 L791.400024,204.199997 C794,204.199997 796.299988,204.699997 798.5,205.600006 C800.700012,206.600006 802.599976,207.899994 804.299988,209.5 C805.900024,211.200012 807.200012,213.100006 808.200012,215.299988 C809.099976,217.600006 809.599976,219.899994 809.599976,222.5 M742.299988,222.5 L742.299988,284.700012 L791.400024,284.700012 L791.400024,222.5 " fill="limegreen" transform=""></path></g></svg>